<svg width="40" height="64" viewBox="0 0 40 64" xmlns="http://www.w3.org/2000/svg">
  <g fill="none">
    <!-- Bus body -->
    <rect x="4" y="0" width="32" height="64" rx="16" fill="#2196F3"/>

    <!-- Windows -->
    <rect x="10" y="6" width="20" height="5" rx="1" fill="#90CAF9"/>
    <rect x="10" y="13" width="20" height="5" rx="1" fill="#90CAF9"/>
    <rect x="10" y="20" width="20" height="5" rx="1" fill="#90CAF9"/>
    <rect x="10" y="27" width="20" height="5" rx="1" fill="#90CAF9"/>
    <rect x="10" y="34" width="20" height="5" rx="1" fill="#90CAF9"/>
    <rect x="10" y="41" width="20" height="5" rx="1" fill="#90CAF9"/>

    <!-- Tires -->
    <rect x="2" y="12" width="4" height="8" rx="1" fill="#333"/>
    <rect x="2" y="44" width="4" height="8" rx="1" fill="#333"/>
    <rect x="34" y="12" width="4" height="8" rx="1" fill="#333"/>
    <rect x="34" y="44" width="4" height="8" rx="1" fill="#333"/>

    <!-- Front windshield -->
    <rect x="10" y="50" width="20" height="6" rx="2" fill="#90CAF9"/>

    <!-- Tail lights -->
    <circle cx="8" cy="60" r="2" fill="#FFC107"/>
    <circle cx="32" cy="60" r="2" fill="#FFC107"/>
  </g>
</svg>
